Coordinates
version=1
nRows=12
nColumns=24
inDegrees=yes

Units are S.I. units (second, meters, Newtons, ...)
Angles are in degrees.

endheader
time	pelvis_tilt	pelvis_list	pelvis_rotation	pelvis_tx	pelvis_ty	pelvis_tz	hip_flexion_r	hip_adduction_r	hip_rotation_r	knee_angle_r	ankle_angle_r	subtalar_angle_r	mtp_angle_r	hip_flexion_l	hip_adduction_l	hip_rotation_l	knee_angle_l	ankle_angle_l	subtalar_angle_l	mtp_angle_l	lumbar_extension	lumbar_bending	lumbar_rotation
      0.92466667	     -7.42294814	      0.82369329	     -2.89733549	     -0.08321069	      1.04614199	      0.31087492	     -1.51587413	      0.02720554	     -1.23818542	    -15.91817400	     19.77881845	      1.91319111	      1.08139181	     32.00547275	     -1.57260677	     -4.12314351	    -14.79309171	      9.41565769	      5.92041430	      8.09274090	     -4.03670684	      2.88974832	      5.51245049
      0.92883333	     -7.40039249	      0.77282029	     -3.00846909	     -0.07743070	      1.04509907	      0.31053137	     -1.64834329	      0.00283793	     -1.21250738	    -16.41716066	     19.94214817	      2.14135151	      1.18720320	     31.99053658	     -1.58152273	     -3.97400084	    -14.90451425	      9.37980751	      5.83405043	      8.04195570	     -4.03418634	      2.92099155	      5.52577965
      0.93300000	     -7.34914614	      0.72778521	     -3.12099426	     -0.07161706	      1.04413518	      0.31020209	     -1.79994506	     -0.02631049	     -1.15337461	    -16.94235406	     20.06180420	      2.26117350	      1.25091700	     31.95209549	     -1.58873109	     -3.88038285	    -15.11363493	      9.31903483	      5.75049623	      8.01762104	     -4.05384498	      2.95219665	      5.52545572
      0.93716667	     -7.28710280	      0.71935560	     -3.22634712	     -0.06577891	      1.04322417	      0.30982429	     -1.92180582	     -0.11572317	     -1.19848892	    -17.55464634	     20.20450898	      2.63904151	      1.40940935	     31.87513592	     -1.54035030	     -3.69492347	    -15.33380335	      9.20114104	      5.59169703	      7.96854743	     -4.10133532	      2.91010248	      5.53168390
      0.94133333	     -7.24744626	      0.70565794	     -3.32594064	     -0.05991190	      1.04229817	      0.30943835	     -2.00169076	     -0.19638103	     -1.22537424	    -18.20651033	     20.28231693	      2.90099757	      1.63507113	     31.83263665	     -1.49754255	     -3.53042549	    -15.64502326	      9.05606344	      5.40625931	      7.91036679	     -4.09500015	      2.88953048	      5.52703314
      0.94550000	     -7.18693439	      0.67135513	     -3.42630315	     -0.05405509	      1.04144215	      0.30910783	     -2.10918765	     -0.23739712	     -1.12355176	    -18.84178288	     20.24162017	      2.93326685	      1.67357730	     31.79011025	     -1.48762351	     -3.42124630	    -16.06753145	      8.93054658	      5.35522783	      7.90115782	     -4.14380937	      2.87802391	      5.50959808
      0.94966667	     -7.11491874	      0.68047875	     -3.51793930	     -0.04816543	      1.04061719	      0.30867128	     -2.15792404	     -0.36583575	     -1.24663270	    -19.63114152	     20.35701699	      3.41290953	      1.96943775	     31.70635710	     -1.40871685	     -3.22715038	    -16.47877919	      8.72297774	      5.08896442	      7.85000794	     -4.16085657	      2.81497117	      5.47944707
      0.95383333	     -7.05144922	      0.67807719	     -3.60581464	     -0.04227581	      1.03983884	      0.30825728	     -2.18941142	     -0.46997282	     -1.28523995	    -20.42976005	     20.34573414	      3.70049649	      2.41725789	     31.63930459	     -1.34353200	     -3.03142019	    -16.95669512	      8.50218563	      4.83755494	      7.78413405	     -4.18418109	      2.76469122	      5.44071879
      0.95800000	     -6.99999854	      0.64728280	     -3.68909816	     -0.03640046	      1.03907412	      0.30785019	     -2.19854718	     -0.53165576	     -1.24473861	    -21.23491367	     20.15697285	      3.78080981	      6.18341626	     31.60373139	     -1.31131977	     -2.85814028	    -17.51570602	      8.30280272	      4.62962482	      7.33481523	     -4.19745650	      2.74653048	      5.39452444
      0.96216667	     -6.93916698	      0.64086762	     -3.77897352	     -0.03050913	      1.03836027	      0.30744601	     -2.16875691	     -0.63434798	     -1.26776333	    -22.14509936	     20.06508028	      4.06785535	      6.23754409	     31.55847809	     -1.26630171	     -2.75436918	    -18.11320074	      8.10035459	      4.50464410	      7.32952319	     -4.21951001	      2.69142168	      5.34822224
      0.96633333	     -6.86532918	      0.63396504	     -3.85455262	     -0.02462592	      1.03772849	      0.30700465	     -2.12609141	     -0.74166968	     -1.31492430	    -23.10233025	     19.90439211	      4.34574131	      6.33753938	     31.49661161	     -1.20713872	     -2.60012643	    -18.73270692	      7.88506901	      4.29326957	      7.31922311	     -4.25557839	      2.63584873	      5.28829168
      0.97050000	     -6.80714171	      0.64368336	     -3.92174141	     -0.01872787	      1.03710647	      0.30654485	     -2.02997772	     -0.87168095	     -1.38218441	    -24.13151819	     19.69317930	      4.60790824	      6.48181872	     31.44908442	     -1.13046069	     -2.45094294	    -19.37100770	      7.67269246	      4.07239450	      7.30460319	     -4.26472479	      2.55240647	      5.21644637
